<svg width="40" height="40" viewBox="0 0 40 40" fill="none" xmlns="http://www.w3.org/2000/svg">
<rect x="0.5" y="0.5" width="39" height="39" rx="7.5" stroke="white" stroke-opacity="0.2"/>
<path d="M23.4793 20.8334H14.1668C13.9307 20.8334 13.7328 20.7536 13.5731 20.5938C13.4134 20.4341 13.3335 20.2362 13.3335 20.0001C13.3335 19.764 13.4134 19.5661 13.5731 19.4063C13.7328 19.2466 13.9307 19.1668 14.1668 19.1668H23.4793L19.396 15.0834C19.2293 14.9168 19.1495 14.7223 19.1564 14.5001C19.1634 14.2779 19.2502 14.0834 19.4168 13.9168C19.5835 13.764 19.7779 13.6841 20.0002 13.6772C20.2224 13.6702 20.4168 13.7501 20.5835 13.9168L26.0835 19.4168C26.1668 19.5001 26.2259 19.5904 26.2606 19.6876C26.2953 19.7848 26.3127 19.889 26.3127 20.0001C26.3127 20.1112 26.2953 20.2154 26.2606 20.3126C26.2259 20.4098 26.1668 20.5001 26.0835 20.5834L20.5835 26.0834C20.4307 26.2362 20.2397 26.3126 20.0106 26.3126C19.7814 26.3126 19.5835 26.2362 19.4168 26.0834C19.2502 25.9168 19.1668 25.7188 19.1668 25.4897C19.1668 25.2605 19.2502 25.0626 19.4168 24.8959L23.4793 20.8334Z" fill="white"/>
</svg>
