<svg width="40" height="40" viewBox="0 0 40 40" fill="none" xmlns="http://www.w3.org/2000/svg">
<rect x="0.5" y="0.5" width="39" height="39" rx="7.5" stroke="white" stroke-opacity="0.2"/>
<path d="M16.5208 20.8333L20.6042 24.9167C20.7708 25.0833 20.8507 25.2778 20.8437 25.5C20.8368 25.7222 20.75 25.9167 20.5833 26.0833C20.4167 26.2361 20.2222 26.316 20 26.3229C19.7778 26.3299 19.5833 26.25 19.4167 26.0833L13.9167 20.5833C13.8333 20.5 13.7743 20.4097 13.7396 20.3125C13.7049 20.2153 13.6875 20.1111 13.6875 20C13.6875 19.8889 13.7049 19.7847 13.7396 19.6875C13.7743 19.5903 13.8333 19.5 13.9167 19.4167L19.4167 13.9167C19.5694 13.7639 19.7604 13.6875 19.9896 13.6875C20.2187 13.6875 20.4167 13.7639 20.5833 13.9167C20.75 14.0833 20.8333 14.2812 20.8333 14.5104C20.8333 14.7396 20.75 14.9375 20.5833 15.1042L16.5208 19.1667H25.8333C26.0694 19.1667 26.2674 19.2465 26.4271 19.4062C26.5868 19.566 26.6667 19.7639 26.6667 20C26.6667 20.2361 26.5868 20.434 26.4271 20.5938C26.2674 20.7535 26.0694 20.8333 25.8333 20.8333H16.5208Z" fill="white"/>
</svg>
