<svg width="14" height="14" viewBox="0 0 14 14" fill="none" xmlns="http://www.w3.org/2000/svg">
<path d="M5.95 8.05L4.3375 6.4375C4.2 6.3 4.025 6.23125 3.8125 6.23125C3.6 6.23125 3.425 6.3 3.2875 6.4375C3.15 6.575 3.08125 6.75 3.08125 6.9625C3.08125 7.175 3.15 7.35 3.2875 7.4875L5.425 9.625C5.575 9.775 5.75 9.85 5.95 9.85C6.15 9.85 6.325 9.775 6.475 9.625L10.7125 5.3875C10.85 5.25 10.9188 5.075 10.9188 4.8625C10.9188 4.65 10.85 4.475 10.7125 4.3375C10.575 4.2 10.4 4.13125 10.1875 4.13125C9.975 4.13125 9.8 4.2 9.6625 4.3375L5.95 8.05ZM1.75 13.75C1.3375 13.75 0.984375 13.6031 0.690625 13.3094C0.396875 13.0156 0.25 12.6625 0.25 12.25V1.75C0.25 1.3375 0.396875 0.984375 0.690625 0.690625C0.984375 0.396875 1.3375 0.25 1.75 0.25H12.25C12.6625 0.25 13.0156 0.396875 13.3094 0.690625C13.6031 0.984375 13.75 1.3375 13.75 1.75V12.25C13.75 12.6625 13.6031 13.0156 13.3094 13.3094C13.0156 13.6031 12.6625 13.75 12.25 13.75H1.75Z" fill="#DBA91F"/>
</svg>
