<svg width="18" height="18" viewBox="0 0 18 18" fill="none" xmlns="http://www.w3.org/2000/svg">
<path d="M7.06756 11.3625L13.4238 5.00625C13.5738 4.85625 13.7519 4.78125 13.9582 4.78125C14.1644 4.78125 14.3426 4.85625 14.4926 5.00625C14.6426 5.15625 14.7176 5.33438 14.7176 5.54063C14.7176 5.74688 14.6426 5.925 14.4926 6.075L7.59256 12.975C7.44256 13.125 7.26756 13.2 7.06756 13.2C6.86756 13.2 6.69256 13.125 6.54256 12.975L3.31756 9.75C3.16756 9.6 3.09569 9.42188 3.10194 9.21563C3.10819 9.00938 3.18631 8.83125 3.33631 8.68125C3.48631 8.53125 3.66444 8.45625 3.87069 8.45625C4.07694 8.45625 4.25506 8.53125 4.40506 8.68125L7.06756 11.3625Z" fill="#1A1A1A"/>
</svg>
