<svg width="21" height="20" viewBox="0 0 21 20" fill="none" xmlns="http://www.w3.org/2000/svg">
<path d="M13.825 10.975L12.7375 9.88745C12.875 9.22495 12.7031 8.65933 12.2219 8.19058C11.7406 7.72183 11.1625 7.53745 10.4875 7.63745L9.4 6.54995C9.6125 6.44995 9.83125 6.37495 10.0563 6.32495C10.2813 6.27495 10.5125 6.24995 10.75 6.24995C11.6875 6.24995 12.4844 6.57808 13.1406 7.23433C13.7969 7.89058 14.125 8.68745 14.125 9.62495C14.125 9.86245 14.1 10.0937 14.05 10.3187C14 10.5437 13.925 10.7625 13.825 10.975ZM16.225 13.3375L15.1375 12.2875C15.6125 11.925 16.0375 11.5218 16.4125 11.0781C16.7875 10.6343 17.1 10.15 17.35 9.62495C16.725 8.36245 15.8219 7.35933 14.6406 6.61558C13.4594 5.87183 12.1625 5.49995 10.75 5.49995C10.3875 5.49995 10.0344 5.52495 9.69063 5.57495C9.34688 5.62495 9 5.69995 8.65 5.79995L7.4875 4.63745C8.0125 4.42495 8.54688 4.26558 9.09063 4.15933C9.63438 4.05308 10.1875 3.99995 10.75 3.99995C12.4625 3.99995 14.0281 4.44995 15.4469 5.34995C16.8656 6.24995 17.95 7.46245 18.7 8.98745C18.75 9.08745 18.7875 9.19058 18.8125 9.29683C18.8375 9.40308 18.85 9.51245 18.85 9.62495C18.85 9.73745 18.8406 9.84683 18.8219 9.95308C18.8031 10.0593 18.7688 10.1625 18.7188 10.2625C18.4438 10.875 18.0938 11.4406 17.6688 11.9593C17.2438 12.4781 16.7625 12.9375 16.225 13.3375ZM10.75 15.25C9.075 15.25 7.54375 14.7968 6.15625 13.8906C4.76875 12.9843 3.675 11.7937 2.875 10.3187C2.8125 10.2187 2.76562 10.1093 2.73438 9.99058C2.70313 9.87183 2.6875 9.74995 2.6875 9.62495C2.6875 9.49995 2.7 9.3812 2.725 9.2687C2.75 9.1562 2.79375 9.0437 2.85625 8.9312C3.10625 8.4312 3.39688 7.95308 3.72813 7.49683C4.05938 7.04058 4.4375 6.62495 4.8625 6.24995L3.30625 4.67495C3.16875 4.52495 3.10313 4.34683 3.10938 4.14058C3.11563 3.93433 3.1875 3.76245 3.325 3.62495C3.4625 3.48745 3.6375 3.4187 3.85 3.4187C4.0625 3.4187 4.2375 3.48745 4.375 3.62495L17.125 16.375C17.2625 16.5125 17.3344 16.6843 17.3406 16.8906C17.3469 17.0968 17.275 17.275 17.125 17.425C16.9875 17.5625 16.8125 17.6312 16.6 17.6312C16.3875 17.6312 16.2125 17.5625 16.075 17.425L13.45 14.8375C13.0125 14.975 12.5688 15.0781 12.1188 15.1468C11.6688 15.2156 11.2125 15.25 10.75 15.25ZM5.9125 7.29995C5.55 7.62495 5.21875 7.9812 4.91875 8.3687C4.61875 8.7562 4.3625 9.17495 4.15 9.62495C4.775 10.8875 5.67813 11.8906 6.85938 12.6343C8.04063 13.3781 9.3375 13.75 10.75 13.75C11 13.75 11.2438 13.7343 11.4813 13.7031C11.7188 13.6718 11.9625 13.6375 12.2125 13.6L11.5375 12.8875C11.4 12.925 11.2688 12.9531 11.1438 12.9718C11.0188 12.9906 10.8875 13 10.75 13C9.8125 13 9.01563 12.6718 8.35938 12.0156C7.70312 11.3593 7.375 10.5625 7.375 9.62495C7.375 9.48745 7.38438 9.3562 7.40313 9.2312C7.42188 9.1062 7.45 8.97495 7.4875 8.83745L5.9125 7.29995Z" fill="#474747"/>
</svg>
