<svg width="18" height="18" viewBox="0 0 18 18" fill="none" xmlns="http://www.w3.org/2000/svg">
<path d="M4.5 15.0001C4.0875 15.0001 3.73438 14.8532 3.44063 14.5595C3.14687 14.2657 3 13.9126 3 13.5001V12.0001C3 11.7876 3.07188 11.6095 3.21563 11.4657C3.35938 11.322 3.5375 11.2501 3.75 11.2501C3.9625 11.2501 4.14062 11.322 4.28438 11.4657C4.42813 11.6095 4.5 11.7876 4.5 12.0001V13.5001H13.5V12.0001C13.5 11.7876 13.5719 11.6095 13.7156 11.4657C13.8594 11.322 14.0375 11.2501 14.25 11.2501C14.4625 11.2501 14.6406 11.322 14.7844 11.4657C14.9281 11.6095 15 11.7876 15 12.0001V13.5001C15 13.9126 14.8531 14.2657 14.5594 14.5595C14.2656 14.8532 13.9125 15.0001 13.5 15.0001H4.5ZM8.25 5.8876L6.84375 7.29385C6.69375 7.44385 6.51563 7.51572 6.30938 7.50947C6.10313 7.50322 5.925 7.4251 5.775 7.2751C5.6375 7.1251 5.56563 6.9501 5.55938 6.7501C5.55313 6.5501 5.625 6.3751 5.775 6.2251L8.475 3.5251C8.55 3.4501 8.63125 3.39697 8.71875 3.36572C8.80625 3.33447 8.9 3.31885 9 3.31885C9.1 3.31885 9.19375 3.33447 9.28125 3.36572C9.36875 3.39697 9.45 3.4501 9.525 3.5251L12.225 6.2251C12.375 6.3751 12.4469 6.5501 12.4406 6.7501C12.4344 6.9501 12.3625 7.1251 12.225 7.2751C12.075 7.4251 11.8969 7.50322 11.6906 7.50947C11.4844 7.51572 11.3063 7.44385 11.1562 7.29385L9.75 5.8876V11.2501C9.75 11.4626 9.67813 11.6407 9.53438 11.7845C9.39063 11.9282 9.2125 12.0001 9 12.0001C8.7875 12.0001 8.60938 11.9282 8.46563 11.7845C8.32188 11.6407 8.25 11.4626 8.25 11.2501V5.8876Z" fill="#1A1A1A"/>
</svg>
