<svg width="128" height="128" viewBox="0 0 128 128" fill="none" xmlns="http://www.w3.org/2000/svg">
<path d="M0 64C0 50.5941 0 43.8911 1.88552 38.5026C5.26272 28.8511 12.8511 21.2627 22.5026 17.8855C27.8911 16 34.5941 16 48 16H80C93.4059 16 100.109 16 105.497 17.8855C115.149 21.2627 122.737 28.8511 126.114 38.5026C128 43.8911 128 50.5941 128 64C128 77.4059 128 84.1089 126.114 89.4974C122.737 99.1489 115.149 106.737 105.497 110.114C100.109 112 93.4059 112 80 112H48C34.5941 112 27.8911 112 22.5026 110.114C12.8511 106.737 5.26272 99.1489 1.88552 89.4974C0 84.1089 0 77.4059 0 64Z" fill="#FFCF40"/>
<path d="M85.6593 99.0798C79.8747 99.0798 74.8958 98.2534 70.7226 96.6006C66.5907 94.9479 63.3265 92.6547 60.9301 89.7211C58.5336 86.7461 57.1287 83.3373 56.7156 79.4947L56.6536 79.2468H72.1481L72.2101 79.4947C72.9951 81.8912 74.5032 83.8332 76.7345 85.3206C79.007 86.8081 82.0439 87.5518 85.8452 87.5518C88.407 87.5518 90.6382 87.2006 92.5388 86.4982C94.4395 85.7958 95.927 84.8248 97.0012 83.5853C98.0755 82.3457 98.6127 80.8789 98.6127 79.1848V79.1228C98.6127 77.1395 97.8276 75.4868 96.2575 74.1646C94.7287 72.8424 92.1256 71.7681 88.4483 70.9418L77.4782 68.5246C73.181 67.5743 69.6276 66.2521 66.818 64.558C64.0083 62.864 61.9011 60.7774 60.4962 58.2982C59.1327 55.8191 58.451 52.9268 58.451 49.6213V49.5593C58.451 45.4688 59.5872 41.8741 61.8597 38.7752C64.1323 35.6763 67.3138 33.2591 71.4043 31.5237C75.4949 29.7884 80.2052 28.9207 85.5353 28.9207C91.072 28.9207 95.8237 29.7677 99.7903 31.4618C103.757 33.1558 106.856 35.4697 109.087 38.4033C111.318 41.3369 112.578 44.6424 112.868 48.3198V48.5677H98.1788L98.1168 48.3198C97.621 46.1299 96.2988 44.2706 94.1503 42.7418C92.0017 41.1717 89.13 40.3866 85.5353 40.3866C83.2628 40.3866 81.2382 40.7378 79.4615 41.4402C77.7261 42.1426 76.3626 43.1136 75.3709 44.3532C74.3793 45.5514 73.8835 46.9769 73.8835 48.6297V48.7536C73.8835 50.0345 74.214 51.1708 74.8751 52.1624C75.5362 53.1541 76.5898 54.0218 78.036 54.7655C79.5235 55.4679 81.4654 56.1083 83.8619 56.6868L94.894 59.104C101.546 60.5914 106.443 62.802 109.583 65.7356C112.764 68.6692 114.355 72.5945 114.355 77.5114V77.6354C114.355 81.8912 113.116 85.6512 110.636 88.9154C108.157 92.1382 104.748 94.638 100.41 96.4147C96.1129 98.1914 91.196 99.0798 85.6593 99.0798Z" fill="#1A1A1A"/>
</svg>
