<svg width="18" height="18" viewBox="0 0 18 18" fill="none" xmlns="http://www.w3.org/2000/svg">
<path d="M3.75 15.75C3.3375 15.75 2.98437 15.6031 2.69062 15.3094C2.39687 15.0156 2.25 14.6625 2.25 14.25V3.75C2.25 3.3375 2.39687 2.98438 2.69062 2.69063C2.98437 2.39687 3.3375 2.25 3.75 2.25H8.25C8.4625 2.25 8.64062 2.32188 8.78437 2.46563C8.92812 2.60938 9 2.7875 9 3C9 3.2125 8.92812 3.39062 8.78437 3.53438C8.64062 3.67813 8.4625 3.75 8.25 3.75H3.75V14.25H8.25C8.4625 14.25 8.64062 14.3219 8.78437 14.4656C8.92812 14.6094 9 14.7875 9 15C9 15.2125 8.92812 15.3906 8.78437 15.5344C8.64062 15.6781 8.4625 15.75 8.25 15.75H3.75ZM12.8812 9.75H7.5C7.2875 9.75 7.10937 9.67813 6.96562 9.53438C6.82187 9.39063 6.75 9.2125 6.75 9C6.75 8.7875 6.82187 8.60938 6.96562 8.46563C7.10937 8.32188 7.2875 8.25 7.5 8.25H12.8812L11.475 6.84375C11.3375 6.70625 11.2687 6.5375 11.2687 6.3375C11.2687 6.1375 11.3375 5.9625 11.475 5.8125C11.6125 5.6625 11.7875 5.58438 12 5.57813C12.2125 5.57188 12.3937 5.64375 12.5437 5.79375L15.225 8.475C15.375 8.625 15.45 8.8 15.45 9C15.45 9.2 15.375 9.375 15.225 9.525L12.5437 12.2063C12.3937 12.3563 12.2156 12.4281 12.0094 12.4219C11.8031 12.4156 11.625 12.3375 11.475 12.1875C11.3375 12.0375 11.2719 11.8594 11.2781 11.6531C11.2844 11.4469 11.3562 11.275 11.4937 11.1375L12.8812 9.75Z" fill="#1A1A1A"/>
</svg>
