<svg width="14" height="14" viewBox="0 0 14 14" fill="none" xmlns="http://www.w3.org/2000/svg">
<path d="M4 7.75H10C10.2125 7.75 10.3906 7.67813 10.5344 7.53438C10.6781 7.39063 10.75 7.2125 10.75 7C10.75 6.7875 10.6781 6.60938 10.5344 6.46563C10.3906 6.32188 10.2125 6.25 10 6.25H4C3.7875 6.25 3.60937 6.32188 3.46562 6.46563C3.32187 6.60938 3.25 6.7875 3.25 7C3.25 7.2125 3.32187 7.39063 3.46562 7.53438C3.60937 7.67813 3.7875 7.75 4 7.75ZM1.75 13.75C1.3375 13.75 0.984375 13.6031 0.690625 13.3094C0.396875 13.0156 0.25 12.6625 0.25 12.25V1.75C0.25 1.3375 0.396875 0.984375 0.690625 0.690625C0.984375 0.396875 1.3375 0.25 1.75 0.25H12.25C12.6625 0.25 13.0156 0.396875 13.3094 0.690625C13.6031 0.984375 13.75 1.3375 13.75 1.75V12.25C13.75 12.6625 13.6031 13.0156 13.3094 13.3094C13.0156 13.6031 12.6625 13.75 12.25 13.75H1.75Z" fill="#DBA91F"/>
</svg>
