<svg width="24" height="24" viewBox="0 0 24 24" fill="none" xmlns="http://www.w3.org/2000/svg">
<path d="M12 15.7535C11.5369 15.7535 11.0927 15.9375 10.7652 16.265C10.4378 16.5924 10.2538 17.0366 10.2538 17.4997C10.2538 17.9629 10.4378 18.407 10.7652 18.7345C11.0927 19.062 11.5369 19.246 12 19.246C12.4632 19.246 12.9073 19.062 13.2348 18.7345C13.5623 18.407 13.7463 17.9629 13.7463 17.4997C13.7463 17.0366 13.5623 16.5924 13.2348 16.265C12.9073 15.9375 12.4632 15.7535 12 15.7535ZM12 10.2896C11.5369 10.2896 11.0927 10.4735 10.7652 10.801C10.4378 11.1285 10.2538 11.5727 10.2538 12.0358C10.2538 12.499 10.4378 12.9431 10.7652 13.2706C11.0927 13.5981 11.5369 13.7821 12 13.7821C12.4632 13.7821 12.9073 13.5981 13.2348 13.2706C13.5623 12.9431 13.7463 12.499 13.7463 12.0358C13.7463 11.5727 13.5623 11.1285 13.2348 10.801C12.9073 10.4735 12.4632 10.2896 12 10.2896ZM13.7463 6.5004C13.7463 6.03727 13.5623 5.5931 13.2348 5.26562C12.9073 4.93813 12.4632 4.75415 12 4.75415C11.5369 4.75415 11.0927 4.93813 10.7652 5.26562C10.4378 5.5931 10.2538 6.03727 10.2538 6.5004C10.2538 6.96354 10.4378 7.4077 10.7652 7.73519C11.0927 8.06267 11.5369 8.24665 12 8.24665C12.4632 8.24665 12.9073 8.06267 13.2348 7.73519C13.5623 7.4077 13.7463 6.96354 13.7463 6.5004Z" fill="#1A1A1A"/>
</svg>
