<svg width="23" height="23" viewBox="0 0 23 23" fill="none" xmlns="http://www.w3.org/2000/svg">
<path d="M1 11C1 8.76568 1 7.64852 1.31425 6.75044C1.87712 5.14185 3.14185 3.87712 4.75044 3.31425C5.64852 3 6.76568 3 9 3H14.3333C16.5677 3 17.6848 3 18.5829 3.31425C20.1915 3.87712 21.4562 5.14185 22.0191 6.75044C22.3333 7.64852 22.3333 8.76568 22.3333 11C22.3333 13.2343 22.3333 14.3515 22.0191 15.2496C21.4562 16.8581 20.1915 18.1229 18.5829 18.6857C17.6848 19 16.5677 19 14.3333 19H9C6.76568 19 5.64852 19 4.75044 18.6857C3.14185 18.1229 1.87712 16.8581 1.31425 15.2496C1 14.3515 1 13.2343 1 11Z" fill="#FFCF40"/>
<path d="M15.2765 16.8466C14.3124 16.8466 13.4826 16.7089 12.7871 16.4334C12.0985 16.158 11.5544 15.7758 11.155 15.2868C10.7556 14.791 10.5215 14.2229 10.4526 13.5825L10.4423 13.5411H13.0247L13.035 13.5825C13.1659 13.9819 13.4172 14.3055 13.7891 14.5534C14.1678 14.8014 14.674 14.9253 15.3075 14.9253C15.7345 14.9253 16.1064 14.8668 16.4231 14.7497C16.7399 14.6326 16.9878 14.4708 17.1669 14.2642C17.3459 14.0576 17.4354 13.8131 17.4354 13.5308V13.5205C17.4354 13.1899 17.3046 12.9145 17.0429 12.6941C16.7881 12.4737 16.3543 12.2947 15.7414 12.157L13.913 11.7541C13.1968 11.5957 12.6046 11.3753 12.1363 11.093C11.6681 10.8107 11.3168 10.4629 11.0827 10.0497C10.8555 9.63652 10.7418 9.15447 10.7418 8.60355V8.59322C10.7418 7.91147 10.9312 7.31235 11.31 6.79586C11.6887 6.27938 12.219 5.87652 12.9007 5.58729C13.5825 5.29806 14.3675 5.15345 15.2559 5.15345C16.1787 5.15345 16.9706 5.29462 17.6317 5.57696C18.2928 5.85931 18.8093 6.24495 19.1812 6.73388C19.553 7.22282 19.7631 7.77374 19.8113 8.38663V8.42795H17.3631L17.3528 8.38663C17.2702 8.02165 17.0498 7.71176 16.6917 7.45696C16.3336 7.19528 15.855 7.06443 15.2559 7.06443C14.8771 7.06443 14.5397 7.12297 14.2436 7.24004C13.9543 7.35711 13.7271 7.51894 13.5618 7.72553C13.3965 7.92524 13.3139 8.16282 13.3139 8.43828V8.45894C13.3139 8.67242 13.369 8.8618 13.4792 9.02707C13.5894 9.19234 13.765 9.33696 14.006 9.46092C14.2539 9.57798 14.5776 9.68472 14.977 9.78113L16.8157 10.184C17.9244 10.4319 18.7404 10.8003 19.2638 11.2893C19.7941 11.7782 20.0592 12.4324 20.0592 13.2519V13.2726C20.0592 13.9819 19.8526 14.6085 19.4394 15.1526C19.0262 15.6897 18.4581 16.1063 17.735 16.4025C17.0188 16.6986 16.1993 16.8466 15.2765 16.8466Z" fill="#1A1A1A"/>
</svg>
