<svg width="369" height="21" viewBox="0 0 369 21" fill="none" xmlns="http://www.w3.org/2000/svg">
<line x1="0.25" y1="10" x2="157.75" y2="10" stroke="#D2D2D2"/>
<path d="M184.765 10.9091C184.765 12.0062 184.56 12.9458 184.149 13.728C183.741 14.5069 183.184 15.1035 182.478 15.5178C181.775 15.9321 180.978 16.1392 180.087 16.1392C179.195 16.1392 178.396 15.9321 177.69 15.5178C176.988 15.1001 176.431 14.5019 176.02 13.723C175.612 12.9408 175.408 12.0028 175.408 10.9091C175.408 9.81203 175.612 8.87405 176.02 8.09517C176.431 7.31297 176.988 6.71473 177.69 6.30043C178.396 5.88613 179.195 5.67898 180.087 5.67898C180.978 5.67898 181.775 5.88613 182.478 6.30043C183.184 6.71473 183.741 7.31297 184.149 8.09517C184.56 8.87405 184.765 9.81203 184.765 10.9091ZM182.911 10.9091C182.911 10.1368 182.79 9.48556 182.548 8.95526C182.309 8.42164 181.978 8.01894 181.553 7.74716C181.129 7.47206 180.64 7.33452 180.087 7.33452C179.533 7.33452 179.044 7.47206 178.62 7.74716C178.196 8.01894 177.863 8.42164 177.621 8.95526C177.382 9.48556 177.263 10.1368 177.263 10.9091C177.263 11.6813 177.382 12.3343 177.621 12.8679C177.863 13.3982 178.196 13.8009 178.62 14.076C179.044 14.3478 179.533 14.4837 180.087 14.4837C180.64 14.4837 181.129 14.3478 181.553 14.076C181.978 13.8009 182.309 13.3982 182.548 12.8679C182.79 12.3343 182.911 11.6813 182.911 10.9091ZM186.649 16V5.81818H190.467C191.249 5.81818 191.905 5.95407 192.436 6.22585C192.969 6.49763 193.372 6.87879 193.644 7.36932C193.919 7.85653 194.056 8.42495 194.056 9.07457C194.056 9.72751 193.917 10.2943 193.639 10.7749C193.364 11.2521 192.958 11.6217 192.421 11.8835C191.884 12.142 191.224 12.2713 190.442 12.2713H187.723V10.7401H190.194C190.651 10.7401 191.025 10.6771 191.317 10.5511C191.609 10.4219 191.824 10.2346 191.963 9.98935C192.106 9.74077 192.177 9.43584 192.177 9.07457C192.177 8.7133 192.106 8.40507 191.963 8.14986C191.821 7.89134 191.604 7.69579 191.312 7.56321C191.02 7.42732 190.644 7.35938 190.184 7.35938H188.493V16H186.649ZM191.909 11.3864L194.429 16H192.371L189.895 11.3864H191.909Z" fill="#737373"/>
<line x1="210.75" y1="10" x2="368.25" y2="10" stroke="#D2D2D2"/>
</svg>
