<svg width="24" height="24" viewBox="0 0 24 24" fill="none" xmlns="http://www.w3.org/2000/svg">
<path d="M11.126 13H6.12598C5.84264 13 5.60514 12.9042 5.41348 12.7125C5.22181 12.5208 5.12598 12.2833 5.12598 12C5.12598 11.7167 5.22181 11.4792 5.41348 11.2875C5.60514 11.0958 5.84264 11 6.12598 11H11.126V6C11.126 5.71667 11.2218 5.47917 11.4135 5.2875C11.6051 5.09583 11.8426 5 12.126 5C12.4093 5 12.6468 5.09583 12.8385 5.2875C13.0301 5.47917 13.126 5.71667 13.126 6V11H18.126C18.4093 11 18.6468 11.0958 18.8385 11.2875C19.0301 11.4792 19.126 11.7167 19.126 12C19.126 12.2833 19.0301 12.5208 18.8385 12.7125C18.6468 12.9042 18.4093 13 18.126 13H13.126V18C13.126 18.2833 13.0301 18.5208 12.8385 18.7125C12.6468 18.9042 12.4093 19 12.126 19C11.8426 19 11.6051 18.9042 11.4135 18.7125C11.2218 18.5208 11.126 18.2833 11.126 18V13Z" fill="#1A1A1A"/>
</svg>
