<svg width="24" height="24" viewBox="0 0 24 24" fill="none" xmlns="http://www.w3.org/2000/svg">
<path d="M9.56299 16C7.74632 16 6.20882 15.3708 4.95049 14.1125C3.69216 12.8542 3.06299 11.3167 3.06299 9.5C3.06299 7.68333 3.69216 6.14583 4.95049 4.8875C6.20882 3.62917 7.74632 3 9.56299 3C11.3797 3 12.9172 3.62917 14.1755 4.8875C15.4338 6.14583 16.063 7.68333 16.063 9.5C16.063 10.2333 15.9463 10.925 15.713 11.575C15.4797 12.225 15.163 12.8 14.763 13.3L20.363 18.9C20.5463 19.0833 20.638 19.3167 20.638 19.6C20.638 19.8833 20.5463 20.1167 20.363 20.3C20.1797 20.4833 19.9463 20.575 19.663 20.575C19.3797 20.575 19.1463 20.4833 18.963 20.3L13.363 14.7C12.863 15.1 12.288 15.4167 11.638 15.65C10.988 15.8833 10.2963 16 9.56299 16ZM9.56299 14C10.813 14 11.8755 13.5625 12.7505 12.6875C13.6255 11.8125 14.063 10.75 14.063 9.5C14.063 8.25 13.6255 7.1875 12.7505 6.3125C11.8755 5.4375 10.813 5 9.56299 5C8.31299 5 7.25049 5.4375 6.37549 6.3125C5.50049 7.1875 5.06299 8.25 5.06299 9.5C5.06299 10.75 5.50049 11.8125 6.37549 12.6875C7.25049 13.5625 8.31299 14 9.56299 14Z" fill="#1A1A1A"/>
</svg>
