<svg width="24" height="24" viewBox="0 0 24 24" fill="none" xmlns="http://www.w3.org/2000/svg">
<path d="M12.7 6.73076L15.3 9.33076C15.6167 9.64743 15.6875 10.0099 15.5125 10.4183C15.3375 10.8266 15.025 11.0308 14.575 11.0308L9.42502 11.0308C8.97502 11.0308 8.66253 10.8266 8.48752 10.4183C8.31253 10.0099 8.38336 9.64743 8.70002 9.33076L11.3 6.73076C11.4 6.63076 11.5084 6.55576 11.625 6.50576C11.7417 6.45576 11.8667 6.43076 12 6.43076C12.1334 6.43076 12.2584 6.45576 12.375 6.50576C12.4917 6.55576 12.6 6.63076 12.7 6.73076Z" fill="#1A1A1A"/>
<path d="M12.7 17.2697L15.3 14.6697C15.6167 14.3531 15.6875 13.9906 15.5125 13.5822C15.3375 13.1739 15.025 12.9697 14.575 12.9697L9.42502 12.9697C8.97502 12.9697 8.66253 13.1739 8.48752 13.5822C8.31253 13.9906 8.38336 14.3531 8.70002 14.6697L11.3 17.2697C11.4 17.3697 11.5084 17.4447 11.625 17.4947C11.7417 17.5447 11.8667 17.5697 12 17.5697C12.1334 17.5697 12.2584 17.5447 12.375 17.4947C12.4917 17.4447 12.6 17.3697 12.7 17.2697Z" fill="#1A1A1A"/>
</svg>
