<svg width="24" height="24" viewBox="0 0 24 24" fill="none" xmlns="http://www.w3.org/2000/svg">
<path d="M12.7 6.73066L15.3 9.33066C15.6166 9.64733 15.6875 10.0098 15.5125 10.4182C15.3375 10.8265 15.025 11.0307 14.575 11.0307H9.42497C8.97497 11.0307 8.66248 10.8265 8.48748 10.4182C8.31248 10.0098 8.38331 9.64733 8.69998 9.33066L11.3 6.73066C11.4 6.63066 11.5083 6.55566 11.625 6.50566C11.7416 6.45566 11.8666 6.43066 12 6.43066C12.1333 6.43066 12.2583 6.45566 12.375 6.50566C12.4916 6.55566 12.6 6.63066 12.7 6.73066Z" fill="#1A1A1A"/>
<path d="M12.7 17.2696L15.3 14.6696C15.6166 14.353 15.6875 13.9905 15.5125 13.5821C15.3375 13.1738 15.025 12.9696 14.575 12.9696L9.42497 12.9696C8.97497 12.9696 8.66248 13.1738 8.48748 13.5821C8.31248 13.9905 8.38331 14.353 8.69998 14.6696L11.3 17.2696C11.4 17.3696 11.5083 17.4446 11.625 17.4946C11.7416 17.5446 11.8666 17.5696 12 17.5696C12.1333 17.5696 12.2583 17.5446 12.375 17.4946C12.4916 17.4446 12.6 17.3696 12.7 17.2696Z" fill="#CACACC"/>
</svg>
