<svg width="14" height="14" viewBox="0 0 14 14" fill="none" xmlns="http://www.w3.org/2000/svg">
<path d="M6.21807 10.272L6.7132 9.13782C7.15389 8.1286 7.94703 7.32519 8.93639 6.88602L10.2993 6.28104C10.7326 6.08871 10.7326 5.45833 10.2993 5.26599L8.97893 4.6799C7.96412 4.22944 7.15676 3.39629 6.72364 2.35261L6.22207 1.144C6.03595 0.695489 5.41623 0.69549 5.23011 1.144L4.72853 2.3526C4.2954 3.39629 3.48803 4.22944 2.47323 4.6799L1.15287 5.26599C0.719551 5.45833 0.71955 6.08871 1.15287 6.28104L2.5158 6.88602C3.50515 7.32519 4.2983 8.1286 4.73896 9.13782L5.23412 10.272C5.42445 10.7078 6.02771 10.7078 6.21807 10.272ZM11.1756 13.0333L11.3148 12.7141C11.5631 12.1451 12.0102 11.692 12.5681 11.4441L12.9971 11.2535C13.2291 11.1504 13.2291 10.8132 12.9971 10.7101L12.5921 10.5301C12.0199 10.2759 11.5647 9.80604 11.3207 9.21765L11.1777 8.87276C11.0781 8.63242 10.7457 8.63242 10.6461 8.87276L10.5031 9.21765C10.2591 9.80604 9.804 10.2759 9.23174 10.5301L8.82671 10.7101C8.59472 10.8132 8.59472 11.1504 8.82671 11.2535L9.25572 11.4441C9.81365 11.692 10.2607 12.1451 10.509 12.7141L10.6483 13.0333C10.7501 13.2669 11.0737 13.2669 11.1756 13.0333Z" fill="#1A1A1A"/>
</svg>
