<svg width="369" height="40" viewBox="0 0 369 40" fill="none" xmlns="http://www.w3.org/2000/svg">
<rect x="0.75" y="0.5" width="367" height="39" rx="7.5" stroke="#CACACC"/>
<g clip-path="url(#clip0_1127_27063)">
<path d="M20.2495 18.4849V21.7121H24.7343C24.5374 22.75 23.9464 23.6288 23.0601 24.2197L25.7646 26.3182C27.3404 24.8637 28.2495 22.7274 28.2495 20.1895C28.2495 19.5986 28.1964 19.0304 28.0979 18.485L20.2495 18.4849Z" fill="#4285F4"/>
<path d="M15.5796 21.5859L14.9697 22.0529L12.8105 23.7347C14.1818 26.4543 16.9922 28.3331 20.2497 28.3331C22.4996 28.3331 24.386 27.5907 25.7648 26.318L23.0603 24.2195C22.3178 24.7195 21.3709 25.0226 20.2497 25.0226C18.083 25.0226 16.2422 23.5605 15.5831 21.5907L15.5796 21.5859Z" fill="#34A853"/>
<path d="M12.8104 16.2651C12.2422 17.3863 11.9165 18.6515 11.9165 19.9999C11.9165 21.3484 12.2422 22.6136 12.8104 23.7347C12.8104 23.7423 15.5832 21.5832 15.5832 21.5832C15.4165 21.0832 15.318 20.553 15.318 19.9998C15.318 19.4467 15.4165 18.9165 15.5832 18.4165L12.8104 16.2651Z" fill="#FBBC05"/>
<path d="M20.2499 14.9847C21.4772 14.9847 22.5681 15.4089 23.4393 16.2271L25.8256 13.8408C24.3786 12.4923 22.4999 11.6665 20.2499 11.6665C16.9923 11.6665 14.1818 13.5377 12.8105 16.265L15.5832 18.4165C16.2423 16.4468 18.0832 14.9847 20.2499 14.9847Z" fill="#EA4335"/>
</g>
<path d="M130.413 18.2536H128.554C128.5 17.9486 128.403 17.6785 128.26 17.4432C128.118 17.2045 127.94 17.0024 127.728 16.8366C127.516 16.6709 127.274 16.5466 127.002 16.4638C126.734 16.3776 126.444 16.3345 126.132 16.3345C125.579 16.3345 125.088 16.4737 124.661 16.7521C124.233 17.0272 123.898 17.4316 123.657 17.9652C123.415 18.4955 123.294 19.1435 123.294 19.9091C123.294 20.688 123.415 21.3442 123.657 21.8778C123.902 22.4081 124.237 22.8092 124.661 23.081C125.088 23.3494 125.577 23.4837 126.127 23.4837C126.432 23.4837 126.717 23.4439 126.982 23.3643C127.251 23.2815 127.491 23.1605 127.703 23.0014C127.919 22.8423 128.099 22.6468 128.245 22.4148C128.394 22.1828 128.497 21.9176 128.554 21.6193L130.413 21.6293C130.343 22.1132 130.192 22.5672 129.96 22.9915C129.732 23.4157 129.432 23.7902 129.061 24.1151C128.689 24.4366 128.255 24.6884 127.758 24.8707C127.261 25.0497 126.709 25.1392 126.103 25.1392C125.208 25.1392 124.409 24.9321 123.706 24.5178C123.004 24.1035 122.45 23.5052 122.046 22.723C121.641 21.9408 121.439 21.0028 121.439 19.9091C121.439 18.812 121.643 17.8741 122.051 17.0952C122.458 16.313 123.014 15.7147 123.716 15.3004C124.419 14.8861 125.214 14.679 126.103 14.679C126.669 14.679 127.196 14.7585 127.683 14.9176C128.171 15.0767 128.605 15.3104 128.986 15.6186C129.367 15.9235 129.68 16.2981 129.926 16.7422C130.174 17.183 130.337 17.6868 130.413 18.2536ZM135.493 25.1491C134.748 25.1491 134.101 24.9851 133.554 24.657C133.008 24.3288 132.583 23.8698 132.282 23.2798C131.983 22.6899 131.834 22.0005 131.834 21.2116C131.834 20.4228 131.983 19.7318 132.282 19.1385C132.583 18.5452 133.008 18.0845 133.554 17.7564C134.101 17.4283 134.748 17.2642 135.493 17.2642C136.239 17.2642 136.885 17.4283 137.432 17.7564C137.979 18.0845 138.402 18.5452 138.7 19.1385C139.002 19.7318 139.153 20.4228 139.153 21.2116C139.153 22.0005 139.002 22.6899 138.7 23.2798C138.402 23.8698 137.979 24.3288 137.432 24.657C136.885 24.9851 136.239 25.1491 135.493 25.1491ZM135.503 23.7074C135.908 23.7074 136.246 23.5964 136.518 23.3743C136.789 23.1489 136.992 22.8473 137.124 22.4695C137.26 22.0916 137.328 21.6707 137.328 21.2067C137.328 20.7393 137.26 20.3168 137.124 19.9389C136.992 19.5578 136.789 19.2545 136.518 19.0291C136.246 18.8037 135.908 18.6911 135.503 18.6911C135.089 18.6911 134.744 18.8037 134.469 19.0291C134.197 19.2545 133.994 19.5578 133.858 19.9389C133.725 20.3168 133.659 20.7393 133.659 21.2067C133.659 21.6707 133.725 22.0916 133.858 22.4695C133.994 22.8473 134.197 23.1489 134.469 23.3743C134.744 23.5964 135.089 23.7074 135.503 23.7074ZM142.62 20.5256V25H140.82V17.3636H142.54V18.6612H142.63C142.805 18.2337 143.085 17.8939 143.47 17.642C143.858 17.3902 144.337 17.2642 144.907 17.2642C145.434 17.2642 145.893 17.3769 146.284 17.6023C146.678 17.8277 146.983 18.1541 147.199 18.5817C147.417 19.0092 147.525 19.5279 147.522 20.1378V25H145.722V20.4162C145.722 19.9058 145.589 19.5064 145.324 19.218C145.062 18.9297 144.7 18.7855 144.236 18.7855C143.921 18.7855 143.641 18.8551 143.395 18.9943C143.153 19.1302 142.963 19.3274 142.824 19.5859C142.688 19.8445 142.62 20.1577 142.62 20.5256ZM153.304 17.3636V18.7557H148.915V17.3636H153.304ZM149.998 15.5341H151.798V22.7031C151.798 22.9451 151.835 23.1307 151.907 23.2599C151.984 23.3859 152.083 23.4721 152.206 23.5185C152.328 23.5649 152.464 23.5881 152.613 23.5881C152.726 23.5881 152.829 23.5798 152.922 23.5632C153.018 23.5466 153.091 23.5317 153.14 23.5185L153.444 24.9254C153.348 24.9586 153.21 24.995 153.031 25.0348C152.855 25.0746 152.64 25.0978 152.385 25.1044C151.934 25.1177 151.528 25.0497 151.167 24.9006C150.805 24.7481 150.519 24.5128 150.307 24.1946C150.098 23.8764 149.995 23.4787 149.998 23.0014V15.5341ZM154.95 25V17.3636H156.749V25H154.95ZM155.854 16.2798C155.569 16.2798 155.324 16.1854 155.119 15.9964C154.913 15.8042 154.81 15.5739 154.81 15.3054C154.81 15.0336 154.913 14.8033 155.119 14.6143C155.324 14.4221 155.569 14.326 155.854 14.326C156.143 14.326 156.388 14.4221 156.59 14.6143C156.796 14.8033 156.898 15.0336 156.898 15.3054C156.898 15.5739 156.796 15.8042 156.59 15.9964C156.388 16.1854 156.143 16.2798 155.854 16.2798ZM160.54 20.5256V25H158.74V17.3636H160.46V18.6612H160.55C160.725 18.2337 161.005 17.8939 161.39 17.642C161.778 17.3902 162.257 17.2642 162.827 17.2642C163.354 17.2642 163.813 17.3769 164.204 17.6023C164.598 17.8277 164.903 18.1541 165.119 18.5817C165.337 19.0092 165.445 19.5279 165.442 20.1378V25H163.642V20.4162C163.642 19.9058 163.509 19.5064 163.244 19.218C162.982 18.9297 162.62 18.7855 162.156 18.7855C161.841 18.7855 161.561 18.8551 161.315 18.9943C161.073 19.1302 160.883 19.3274 160.744 19.5859C160.608 19.8445 160.54 20.1577 160.54 20.5256ZM172.278 21.7884V17.3636H174.078V25H172.333V23.6428H172.254C172.081 24.0703 171.798 24.42 171.403 24.6918C171.012 24.9635 170.53 25.0994 169.957 25.0994C169.456 25.0994 169.014 24.9884 168.629 24.7663C168.248 24.541 167.95 24.2145 167.734 23.7869C167.519 23.3561 167.411 22.8357 167.411 22.2259V17.3636H169.211V21.9474C169.211 22.4313 169.344 22.8158 169.609 23.1009C169.874 23.3859 170.222 23.5284 170.653 23.5284C170.918 23.5284 171.175 23.4638 171.423 23.3345C171.672 23.2053 171.876 23.013 172.035 22.7578C172.197 22.4993 172.278 22.1761 172.278 21.7884ZM179.45 25.1491C178.684 25.1491 178.023 24.9901 177.466 24.6719C176.912 24.3504 176.486 23.8963 176.188 23.3097C175.89 22.7197 175.741 22.0253 175.741 21.2266C175.741 20.4411 175.89 19.7517 176.188 19.1584C176.49 18.5618 176.911 18.0978 177.451 17.7663C177.991 17.4316 178.626 17.2642 179.355 17.2642C179.826 17.2642 180.27 17.3404 180.687 17.4929C181.108 17.642 181.48 17.8741 181.801 18.1889C182.126 18.5038 182.381 18.9048 182.567 19.392C182.752 19.8759 182.845 20.4527 182.845 21.1222V21.674H176.586V20.4609H181.12C181.117 20.1162 181.042 19.8097 180.896 19.5412C180.75 19.2694 180.547 19.0556 180.285 18.8999C180.026 18.7441 179.725 18.6662 179.38 18.6662C179.012 18.6662 178.689 18.7557 178.41 18.9347C178.132 19.1103 177.915 19.3423 177.759 19.6307C177.607 19.9157 177.529 20.2289 177.526 20.5703V21.6293C177.526 22.0734 177.607 22.4545 177.769 22.7727C177.932 23.0876 178.159 23.3295 178.45 23.4986C178.742 23.6643 179.083 23.7472 179.474 23.7472C179.736 23.7472 179.973 23.7107 180.185 23.6378C180.397 23.5616 180.581 23.4505 180.737 23.3047C180.893 23.1589 181.011 22.9782 181.09 22.7628L182.771 22.9517C182.664 23.3958 182.462 23.7836 182.164 24.1151C181.869 24.4432 181.491 24.6984 181.03 24.8807C180.57 25.0597 180.043 25.1491 179.45 25.1491ZM189.696 25L187.539 17.3636H189.373L190.716 22.733H190.785L192.157 17.3636H193.972L195.344 22.7031H195.419L196.741 17.3636H198.581L196.418 25H194.544L193.112 19.8395H193.007L191.576 25H189.696ZM199.977 25V17.3636H201.777V25H199.977ZM200.882 16.2798C200.597 16.2798 200.352 16.1854 200.146 15.9964C199.941 15.8042 199.838 15.5739 199.838 15.3054C199.838 15.0336 199.941 14.8033 200.146 14.6143C200.352 14.4221 200.597 14.326 200.882 14.326C201.17 14.326 201.416 14.4221 201.618 14.6143C201.823 14.8033 201.926 15.0336 201.926 15.3054C201.926 15.5739 201.823 15.8042 201.618 15.9964C201.416 16.1854 201.17 16.2798 200.882 16.2798ZM207.581 17.3636V18.7557H203.191V17.3636H207.581ZM204.275 15.5341H206.074V22.7031C206.074 22.9451 206.111 23.1307 206.184 23.2599C206.26 23.3859 206.359 23.4721 206.482 23.5185C206.605 23.5649 206.741 23.5881 206.89 23.5881C207.002 23.5881 207.105 23.5798 207.198 23.5632C207.294 23.5466 207.367 23.5317 207.417 23.5185L207.72 24.9254C207.624 24.9586 207.486 24.995 207.307 25.0348C207.132 25.0746 206.916 25.0978 206.661 25.1044C206.21 25.1177 205.804 25.0497 205.443 24.9006C205.082 24.7481 204.795 24.5128 204.583 24.1946C204.374 23.8764 204.271 23.4787 204.275 23.0014V15.5341ZM211.19 20.5256V25H209.39V14.8182H211.15V18.6612H211.239C211.418 18.2304 211.695 17.8906 212.07 17.642C212.447 17.3902 212.928 17.2642 213.511 17.2642C214.042 17.2642 214.504 17.3752 214.898 17.5973C215.293 17.8194 215.598 18.1442 215.813 18.5717C216.032 18.9993 216.141 19.5213 216.141 20.1378V25H214.342V20.4162C214.342 19.9025 214.209 19.5031 213.944 19.218C213.682 18.9297 213.314 18.7855 212.84 18.7855C212.522 18.7855 212.237 18.8551 211.985 18.9943C211.737 19.1302 211.541 19.3274 211.398 19.5859C211.259 19.8445 211.19 20.1577 211.19 20.5256ZM228.629 18.0696C228.546 17.8011 228.432 17.5608 228.286 17.3487C228.144 17.1333 227.971 16.9493 227.769 16.7969C227.57 16.6444 227.341 16.5301 227.083 16.4538C226.824 16.3743 226.543 16.3345 226.238 16.3345C225.691 16.3345 225.204 16.4721 224.776 16.7472C224.349 17.0223 224.012 17.4266 223.767 17.9602C223.525 18.4905 223.404 19.1368 223.404 19.8991C223.404 20.6681 223.525 21.3194 223.767 21.853C224.009 22.3866 224.345 22.7926 224.776 23.071C225.207 23.3461 225.707 23.4837 226.278 23.4837C226.795 23.4837 227.242 23.3842 227.62 23.1854C228.001 22.9865 228.294 22.7048 228.5 22.3402C228.705 21.9723 228.808 21.5414 228.808 21.0476L229.226 21.1122H226.462V19.6705H230.593V20.8935C230.593 21.7652 230.407 22.5192 230.036 23.1555C229.665 23.7919 229.154 24.2824 228.505 24.6271C227.855 24.9685 227.109 25.1392 226.268 25.1392C225.33 25.1392 224.506 24.9287 223.797 24.5078C223.091 24.0836 222.539 23.482 222.141 22.7031C221.747 21.9209 221.55 20.9929 221.55 19.919C221.55 19.0971 221.666 18.3629 221.898 17.7166C222.133 17.0703 222.461 16.5218 222.882 16.071C223.303 15.617 223.797 15.2723 224.363 15.0369C224.93 14.7983 225.547 14.679 226.213 14.679C226.776 14.679 227.302 14.7618 227.789 14.9276C228.276 15.09 228.709 15.322 229.087 15.6236C229.468 15.9252 229.781 16.2831 230.026 16.6974C230.271 17.1117 230.432 17.5691 230.508 18.0696H228.629ZM235.768 25.1491C235.022 25.1491 234.376 24.9851 233.829 24.657C233.282 24.3288 232.858 23.8698 232.556 23.2798C232.258 22.6899 232.109 22.0005 232.109 21.2116C232.109 20.4228 232.258 19.7318 232.556 19.1385C232.858 18.5452 233.282 18.0845 233.829 17.7564C234.376 17.4283 235.022 17.2642 235.768 17.2642C236.514 17.2642 237.16 17.4283 237.707 17.7564C238.254 18.0845 238.676 18.5452 238.975 19.1385C239.276 19.7318 239.427 20.4228 239.427 21.2116C239.427 22.0005 239.276 22.6899 238.975 23.2798C238.676 23.8698 238.254 24.3288 237.707 24.657C237.16 24.9851 236.514 25.1491 235.768 25.1491ZM235.778 23.7074C236.182 23.7074 236.52 23.5964 236.792 23.3743C237.064 23.1489 237.266 22.8473 237.399 22.4695C237.534 22.0916 237.602 21.6707 237.602 21.2067C237.602 20.7393 237.534 20.3168 237.399 19.9389C237.266 19.5578 237.064 19.2545 236.792 19.0291C236.52 18.8037 236.182 18.6911 235.778 18.6911C235.364 18.6911 235.019 18.8037 234.744 19.0291C234.472 19.2545 234.268 19.5578 234.132 19.9389C234 20.3168 233.933 20.7393 233.933 21.2067C233.933 21.6707 234 22.0916 234.132 22.4695C234.268 22.8473 234.472 23.1489 234.744 23.3743C235.019 23.5964 235.364 23.7074 235.778 23.7074ZM244.425 25.1491C243.68 25.1491 243.033 24.9851 242.487 24.657C241.94 24.3288 241.515 23.8698 241.214 23.2798C240.916 22.6899 240.766 22.0005 240.766 21.2116C240.766 20.4228 240.916 19.7318 241.214 19.1385C241.515 18.5452 241.94 18.0845 242.487 17.7564C243.033 17.4283 243.68 17.2642 244.425 17.2642C245.171 17.2642 245.817 17.4283 246.364 17.7564C246.911 18.0845 247.334 18.5452 247.632 19.1385C247.934 19.7318 248.085 20.4228 248.085 21.2116C248.085 22.0005 247.934 22.6899 247.632 23.2798C247.334 23.8698 246.911 24.3288 246.364 24.657C245.817 24.9851 245.171 25.1491 244.425 25.1491ZM244.435 23.7074C244.84 23.7074 245.178 23.5964 245.45 23.3743C245.721 23.1489 245.924 22.8473 246.056 22.4695C246.192 22.0916 246.26 21.6707 246.26 21.2067C246.26 20.7393 246.192 20.3168 246.056 19.9389C245.924 19.5578 245.721 19.2545 245.45 19.0291C245.178 18.8037 244.84 18.6911 244.435 18.6911C244.021 18.6911 243.676 18.8037 243.401 19.0291C243.13 19.2545 242.926 19.5578 242.79 19.9389C242.657 20.3168 242.591 20.7393 242.591 21.2067C242.591 21.6707 242.657 22.0916 242.79 22.4695C242.926 22.8473 243.13 23.1489 243.401 23.3743C243.676 23.5964 244.021 23.7074 244.435 23.7074ZM253.073 28.0227C252.427 28.0227 251.872 27.9349 251.408 27.7592C250.944 27.5869 250.571 27.3549 250.289 27.0632C250.007 26.7715 249.812 26.4484 249.702 26.0938L251.323 25.701C251.396 25.8501 251.502 25.9976 251.641 26.1435C251.78 26.2926 251.968 26.4152 252.203 26.5114C252.442 26.6108 252.742 26.6605 253.103 26.6605C253.613 26.6605 254.036 26.5362 254.371 26.2876C254.705 26.0424 254.873 25.638 254.873 25.0746V23.6278H254.783C254.691 23.8134 254.555 24.004 254.376 24.1996C254.2 24.3951 253.966 24.5592 253.675 24.6918C253.386 24.8243 253.023 24.8906 252.586 24.8906C251.999 24.8906 251.467 24.7531 250.99 24.478C250.516 24.1996 250.138 23.7853 249.856 23.2351C249.578 22.6816 249.439 21.9889 249.439 21.157C249.439 20.3184 249.578 19.6108 249.856 19.0341C250.138 18.4541 250.518 18.0149 250.995 17.7166C251.472 17.415 252.004 17.2642 252.591 17.2642C253.038 17.2642 253.406 17.3404 253.695 17.4929C253.986 17.642 254.218 17.8227 254.391 18.0348C254.563 18.2436 254.694 18.4408 254.783 18.6264H254.883V17.3636H256.658V25.1243C256.658 25.7772 256.502 26.3175 256.19 26.745C255.879 27.1726 255.453 27.4924 254.913 27.7045C254.372 27.9167 253.759 28.0227 253.073 28.0227ZM253.088 23.4787C253.469 23.4787 253.794 23.3859 254.062 23.2003C254.331 23.0147 254.535 22.7479 254.674 22.3999C254.813 22.0518 254.883 21.6342 254.883 21.147C254.883 20.6664 254.813 20.2455 254.674 19.8842C254.538 19.523 254.336 19.2429 254.067 19.044C253.802 18.8419 253.476 18.7408 253.088 18.7408C252.687 18.7408 252.352 18.8452 252.084 19.054C251.815 19.2628 251.613 19.5495 251.477 19.9141C251.341 20.2753 251.273 20.6863 251.273 21.147C251.273 21.6143 251.341 22.0237 251.477 22.375C251.616 22.723 251.82 22.9948 252.089 23.1903C252.36 23.3826 252.694 23.4787 253.088 23.4787ZM260.442 14.8182V25H258.642V14.8182H260.442ZM265.813 25.1491C265.048 25.1491 264.386 24.9901 263.829 24.6719C263.276 24.3504 262.85 23.8963 262.552 23.3097C262.253 22.7197 262.104 22.0253 262.104 21.2266C262.104 20.4411 262.253 19.7517 262.552 19.1584C262.853 18.5618 263.274 18.0978 263.815 17.7663C264.355 17.4316 264.99 17.2642 265.719 17.2642C266.189 17.2642 266.633 17.3404 267.051 17.4929C267.472 17.642 267.843 17.8741 268.165 18.1889C268.49 18.5038 268.745 18.9048 268.93 19.392C269.116 19.8759 269.209 20.4527 269.209 21.1222V21.674H262.949V20.4609H267.484C267.48 20.1162 267.406 19.8097 267.26 19.5412C267.114 19.2694 266.91 19.0556 266.648 18.8999C266.39 18.7441 266.088 18.6662 265.744 18.6662C265.376 18.6662 265.052 18.7557 264.774 18.9347C264.496 19.1103 264.279 19.3423 264.123 19.6307C263.97 19.9157 263.892 20.2289 263.889 20.5703V21.6293C263.889 22.0734 263.97 22.4545 264.133 22.7727C264.295 23.0876 264.522 23.3295 264.814 23.4986C265.106 23.6643 265.447 23.7472 265.838 23.7472C266.1 23.7472 266.337 23.7107 266.549 23.6378C266.761 23.5616 266.945 23.4505 267.101 23.3047C267.257 23.1589 267.374 22.9782 267.454 22.7628L269.134 22.9517C269.028 23.3958 268.826 23.7836 268.528 24.1151C268.233 24.4432 267.855 24.6984 267.394 24.8807C266.933 25.0597 266.406 25.1491 265.813 25.1491Z" fill="#1A1A1A"/>
<defs>
<clipPath id="clip0_1127_27063">
<rect width="16.6667" height="16.6667" fill="white" transform="translate(11.9165 11.6665)"/>
</clipPath>
</defs>
</svg>
