<svg width="134" height="24" viewBox="0 0 134 24" fill="none" xmlns="http://www.w3.org/2000/svg">
<path d="M0.85791 12C0.85791 8.64852 0.85791 6.97278 1.3261 5.62566C2.1647 3.21278 4.04898 1.31568 6.44556 0.47138C7.78358 0 9.448 0 12.7768 0H20.7228C24.0516 0 25.716 0 27.054 0.47138C29.4506 1.31568 31.3349 3.21278 32.1735 5.62566C32.6417 6.97278 32.6417 8.64852 32.6417 12C32.6417 15.3515 32.6417 17.0272 32.1735 18.3743C31.3349 20.7872 29.4506 22.6843 27.054 23.5286C25.716 24 24.0516 24 20.7228 24H12.7768C9.448 24 7.78358 24 6.44556 23.5286C4.04898 22.6843 2.1647 20.7872 1.3261 18.3743C0.85791 17.0272 0.85791 15.3515 0.85791 12Z" fill="#FFCF40"/>
<path d="M22.128 20.7699C20.6917 20.7699 19.4553 20.5633 18.4191 20.1502C17.3931 19.737 16.5826 19.1637 15.9875 18.4303C15.3924 17.6865 15.0436 16.8343 14.941 15.8737L14.9256 15.8117H18.7731L18.7884 15.8737C18.9834 16.4728 19.3579 16.9583 19.9119 17.3302C20.4762 17.702 21.2303 17.888 22.1742 17.888C22.8103 17.888 23.3643 17.8002 23.8363 17.6246C24.3083 17.4489 24.6776 17.2062 24.9444 16.8963C25.2111 16.5864 25.3445 16.2197 25.3445 15.7962V15.7807C25.3445 15.2849 25.1496 14.8717 24.7597 14.5412C24.3801 14.2106 23.7337 13.942 22.8206 13.7354L20.0966 13.1312C19.0296 12.8936 18.1472 12.563 17.4495 12.1395C16.7519 11.716 16.2286 11.1943 15.8798 10.5746C15.5412 9.95478 15.3719 9.2317 15.3719 8.40533V8.38984C15.3719 7.3672 15.6541 6.46852 16.2184 5.69379C16.7826 4.91907 17.5727 4.31478 18.5884 3.88094C19.6041 3.44709 20.7737 3.23017 22.0973 3.23017C23.4721 3.23017 24.652 3.44193 25.6369 3.86544C26.6219 4.28896 27.3913 4.86742 27.9454 5.60083C28.4994 6.33423 28.8123 7.16061 28.8842 8.07995V8.14192H25.2368L25.2214 8.07995C25.0983 7.53247 24.7699 7.06764 24.2364 6.68544C23.7029 6.29291 22.9899 6.09665 22.0973 6.09665C21.533 6.09665 21.0302 6.18445 20.5891 6.36006C20.1581 6.53566 19.8196 6.77841 19.5733 7.0883C19.3271 7.38786 19.204 7.74423 19.204 8.15742V8.18841C19.204 8.50863 19.286 8.79269 19.4502 9.04061C19.6144 9.28852 19.876 9.50544 20.2351 9.69137C20.6044 9.86698 21.0867 10.0271 21.6817 10.1717L24.4211 10.776C26.073 11.1479 27.2887 11.7005 28.0685 12.4339C28.8585 13.1673 29.2535 14.1486 29.2535 15.3779V15.4088C29.2535 16.4728 28.9457 17.4128 28.3301 18.2288C27.7145 19.0346 26.8681 19.6595 25.7908 20.1037C24.7238 20.5479 23.5029 20.7699 22.128 20.7699Z" fill="#1A1A1A"/>
<path d="M54.8787 19.2319C51.8079 19.2319 49.7854 17.7847 49.6277 15.3818L49.6184 15.2427H51.9099L51.9285 15.354C52.1048 16.5044 53.283 17.2188 54.9622 17.2188C56.6507 17.2188 57.7083 16.4673 57.7083 15.3169V15.3076C57.7083 14.3057 57.0125 13.7676 55.2869 13.4058L53.8489 13.1089C51.2141 12.5615 49.9153 11.3369 49.9153 9.34229V9.33301C49.9246 6.97656 51.9934 5.38086 54.8787 5.38086C57.8011 5.38086 59.7122 6.9209 59.8513 9.2124L59.8606 9.37012H57.5691L57.5506 9.25879C57.3929 8.08984 56.3631 7.39404 54.8601 7.39404C53.2923 7.40332 52.3181 8.13623 52.3181 9.20312V9.2124C52.3181 10.1587 53.0511 10.7153 54.6653 11.0493L56.1126 11.3462C58.8958 11.9214 60.1111 13.0532 60.1111 15.1406V15.1499C60.1111 17.6455 58.1443 19.2319 54.8787 19.2319ZM62.2397 22.2471V9.16602H64.5498V10.8638H64.5962C65.1621 9.68555 66.2382 8.96191 67.6484 8.96191C70.144 8.96191 71.7212 10.9102 71.7212 14.083V14.0923C71.7212 17.2466 70.144 19.1948 67.6762 19.1948C66.2754 19.1948 65.1528 18.4897 64.5962 17.3394H64.5498V22.2471H62.2397ZM66.9619 17.2466C68.437 17.2466 69.3647 16.0312 69.3647 14.0923V14.083C69.3647 12.1162 68.437 10.9102 66.9619 10.9102C65.5332 10.9102 64.5312 12.1533 64.5312 14.083V14.0923C64.5312 16.0127 65.5332 17.2466 66.9619 17.2466ZM73.7755 19V9.16602H76.0856V10.8638H76.132C76.4381 9.67627 77.2545 8.96191 78.3864 8.96191C78.674 8.96191 78.943 9.0083 79.1193 9.05469V11.1421C78.9245 11.0679 78.5719 11.0122 78.1823 11.0122C76.8742 11.0122 76.0856 11.8379 76.0856 13.2944V19H73.7755ZM82.5096 22.2656C82.0643 22.2656 81.6004 22.21 81.3221 22.1636V20.4009C81.4984 20.438 81.7674 20.4844 82.0921 20.4844C82.9735 20.4844 83.4652 20.2339 83.762 19.4082L83.9012 19.0093L80.3665 9.16602H82.89L85.1907 17.0332H85.2557L87.5657 9.16602H89.9964L86.4617 19.334C85.7103 21.4956 84.5599 22.2656 82.5096 22.2656ZM96.2389 19V5.61279H101.397C104.106 5.61279 105.952 7.40332 105.952 10.0845V10.103C105.952 12.7749 104.106 14.5747 101.397 14.5747H98.6325V19H96.2389ZM100.803 7.57031H98.6325V12.645H100.803C102.52 12.645 103.522 11.7173 103.522 10.1123V10.0938C103.522 8.48877 102.52 7.57031 100.803 7.57031ZM108.109 19V5.61279H110.419V19H108.109ZM115.859 19.167C113.893 19.167 112.566 17.9517 112.566 16.1982V16.1797C112.566 14.4355 113.92 13.3872 116.305 13.2388L118.875 13.0811V12.4038C118.875 11.4111 118.225 10.8081 117.056 10.8081C115.961 10.8081 115.293 11.3184 115.145 12.042L115.127 12.1255H112.983L112.993 12.0142C113.132 10.27 114.644 8.96191 117.14 8.96191C119.598 8.96191 121.185 10.2607 121.185 12.2368V19H118.875V17.4878H118.819C118.253 18.5176 117.158 19.167 115.859 19.167ZM114.867 16.1055C114.867 16.9126 115.535 17.4043 116.546 17.4043C117.873 17.4043 118.875 16.5229 118.875 15.354V14.6118L116.629 14.751C115.488 14.8252 114.867 15.3169 114.867 16.0962V16.1055ZM123.619 19V9.16602H125.929V10.7061H125.976C126.486 9.64844 127.488 8.96191 128.982 8.96191C131.143 8.96191 132.377 10.3535 132.377 12.6357V19H130.067V13.0996C130.067 11.6987 129.418 10.9102 128.1 10.9102C126.774 10.9102 125.929 11.875 125.929 13.2944V19H123.619Z" fill="#1A1A1A"/>
</svg>
