<svg width="21" height="20" viewBox="0 0 21 20" fill="none" xmlns="http://www.w3.org/2000/svg">
<path d="M10.2498 13C11.1873 13 11.9842 12.6719 12.6404 12.0156C13.2967 11.3594 13.6248 10.5625 13.6248 9.625C13.6248 8.6875 13.2967 7.89063 12.6404 7.23438C11.9842 6.57812 11.1873 6.25 10.2498 6.25C9.31231 6.25 8.51543 6.57812 7.85918 7.23438C7.20293 7.89063 6.87481 8.6875 6.87481 9.625C6.87481 10.5625 7.20293 11.3594 7.85918 12.0156C8.51543 12.6719 9.31231 13 10.2498 13ZM10.2498 11.65C9.68731 11.65 9.20918 11.4531 8.81543 11.0594C8.42168 10.6656 8.22481 10.1875 8.22481 9.625C8.22481 9.0625 8.42168 8.58438 8.81543 8.19063C9.20918 7.79688 9.68731 7.6 10.2498 7.6C10.8123 7.6 11.2904 7.79688 11.6842 8.19063C12.0779 8.58438 12.2748 9.0625 12.2748 9.625C12.2748 10.1875 12.0779 10.6656 11.6842 11.0594C11.2904 11.4531 10.8123 11.65 10.2498 11.65ZM10.2498 15.25C8.57481 15.25 7.04668 14.8 5.66543 13.9C4.28418 13 3.19355 11.8125 2.39355 10.3375C2.33105 10.225 2.28418 10.1094 2.25293 9.99063C2.22168 9.87188 2.20605 9.75 2.20605 9.625C2.20605 9.5 2.22168 9.37813 2.25293 9.25938C2.28418 9.14062 2.33105 9.025 2.39355 8.9125C3.19355 7.4375 4.28418 6.25 5.66543 5.35C7.04668 4.45 8.57481 4 10.2498 4C11.9248 4 13.4529 4.45 14.8342 5.35C16.2154 6.25 17.3061 7.4375 18.1061 8.9125C18.1686 9.025 18.2154 9.14062 18.2467 9.25938C18.2779 9.37813 18.2936 9.5 18.2936 9.625C18.2936 9.75 18.2779 9.87188 18.2467 9.99063C18.2154 10.1094 18.1686 10.225 18.1061 10.3375C17.3061 11.8125 16.2154 13 14.8342 13.9C13.4529 14.8 11.9248 15.25 10.2498 15.25ZM10.2498 13.75C11.6623 13.75 12.9592 13.3781 14.1404 12.6344C15.3217 11.8906 16.2248 10.8875 16.8498 9.625C16.2248 8.3625 15.3217 7.35938 14.1404 6.61563C12.9592 5.87188 11.6623 5.5 10.2498 5.5C8.83731 5.5 7.54043 5.87188 6.35918 6.61563C5.17793 7.35938 4.27481 8.3625 3.6498 9.625C4.27481 10.8875 5.17793 11.8906 6.35918 12.6344C7.54043 13.3781 8.83731 13.75 10.2498 13.75Z" fill="#474747"/>
</svg>
