<svg width="16" height="16" viewBox="0 0 16 16" fill="none" xmlns="http://www.w3.org/2000/svg">
<path d="M8 0.5C12.1421 0.5 15.5 3.85786 15.5 8C15.5 12.1421 12.1421 15.5 8 15.5C3.85786 15.5 0.5 12.1421 0.5 8C0.5 3.85786 3.85786 0.5 8 0.5ZM8.11978 11C6.59323 11 5.21886 11.6515 4.25957 12.6917C5.28529 13.5105 6.5855 14 8 14C9.47713 14 10.8295 13.4662 11.8749 12.5811C10.9217 11.6056 9.59142 11 8.11978 11ZM8 2C4.68629 2 2 4.68629 2 8C2 9.35795 2.45113 10.6105 3.21168 11.616C4.44229 10.3131 6.18608 9.5 8.11978 9.5C9.98308 9.5 11.67 10.2549 12.8913 11.4756C13.5894 10.495 14 9.29548 14 8C14 4.68629 11.3137 2 8 2ZM8 2.75C9.65683 2.75 11 4.09314 11 5.75C11 7.40683 9.65683 8.75 8 8.75C6.34314 8.75 5 7.40683 5 5.75C5 4.09314 6.34314 2.75 8 2.75ZM8 4.25C7.17155 4.25 6.5 4.92157 6.5 5.75C6.5 6.57845 7.17155 7.25 8 7.25C8.82845 7.25 9.5 6.57845 9.5 5.75C9.5 4.92157 8.82845 4.25 8 4.25Z" fill="#1A1A1A"/>
</svg>
