<svg width="20" height="20" viewBox="0 0 20 20" fill="none" xmlns="http://www.w3.org/2000/svg">
<path d="M10.0001 12.8151C9.65277 12.8151 9.31964 12.953 9.07403 13.1987C8.82841 13.4443 8.69043 13.7774 8.69043 14.1247C8.69043 14.4721 8.82841 14.8052 9.07403 15.0508C9.31964 15.2965 9.65277 15.4344 10.0001 15.4344C10.3475 15.4344 10.6806 15.2965 10.9262 15.0508C11.1718 14.8052 11.3098 14.4721 11.3098 14.1247C11.3098 13.7774 11.1718 13.4443 10.9262 13.1987C10.6806 12.953 10.3475 12.8151 10.0001 12.8151ZM10.0001 8.71712C9.65277 8.71712 9.31964 8.8551 9.07403 9.10071C8.82841 9.34633 8.69043 9.67945 8.69043 10.0268C8.69043 10.3742 8.82841 10.7073 9.07403 10.9529C9.31964 11.1985 9.65277 11.3365 10.0001 11.3365C10.3475 11.3365 10.6806 11.1985 10.9262 10.9529C11.1718 10.7073 11.3098 10.3742 11.3098 10.0268C11.3098 9.67945 11.1718 9.34633 10.9262 9.10071C10.6806 8.8551 10.3475 8.71712 10.0001 8.71712ZM11.3098 5.87524C11.3098 5.52789 11.1718 5.19477 10.9262 4.94915C10.6806 4.70354 10.3475 4.56555 10.0001 4.56555C9.65277 4.56555 9.31964 4.70354 9.07403 4.94915C8.82841 5.19477 8.69043 5.52789 8.69043 5.87524C8.69043 6.22259 8.82841 6.55572 9.07403 6.80133C9.31964 7.04694 9.65277 7.18493 10.0001 7.18493C10.3475 7.18493 10.6806 7.04694 10.9262 6.80133C11.1718 6.55572 11.3098 6.22259 11.3098 5.87524Z" fill="#1A1A1A"/>
</svg>
